<mxfile host="drawio-plugin" modified="2021-10-18T09:11:21.231Z" agent="5.0 (X11; Linux x86_64) AppleWebKit/537.36 (KHTML, like Gecko) Chrome/89.0.4389.114 Safari/537.36" etag="EXrT7k_IL_J-VBGHE3jp" version="14.7.4" type="embed"><diagram id="52__hkWDA9-3YNXNIhpc" name="Framework structure"><mxGraphModel dx="1022" dy="756" grid="1" gridSize="10" guides="1" tooltips="1" connect="1" arrows="1" fold="1" page="1" pageScale="1" pageWidth="850" pageHeight="1100" math="0" shadow="1"><root><mxCell id="0"/><mxCell id="1" parent="0"/><mxCell id="56" style="edgeStyle=orthogonalEdgeStyle;orthogonalLoop=1;jettySize=auto;html=1;entryX=0;entryY=0.5;entryDx=0;entryDy=0;" parent="1" source="47" target="55" edge="1"><mxGeometry relative="1" as="geometry"/></mxCell><mxCell id="47" value="&lt;h1&gt;&lt;span style=&quot;text-align: left&quot;&gt;&lt;span style=&quot;line-height: 28.8px&quot;&gt;&lt;b style=&quot;font-size: 24px&quot;&gt;tgbotapi.api&lt;/b&gt;&lt;/span&gt;&lt;/span&gt;&lt;/h1&gt;&lt;p&gt;&lt;span style=&quot;text-align: left&quot;&gt;Extensions project for make requests more look like in the Telegram Bot API and give opportunity to use it's easier&lt;/span&gt;&lt;/p&gt;" style="text;html=1;align=center;verticalAlign=middle;shadow=0;glass=0;spacing=5;whiteSpace=wrap;fillColor=#2a2a2a;fontColor=#E6E6E6;" parent="1" vertex="1"><mxGeometry y="200" width="320" height="120" as="geometry"/></mxCell><mxCell id="50" style="edgeStyle=orthogonalEdgeStyle;orthogonalLoop=1;jettySize=auto;html=1;entryX=0.5;entryY=0;entryDx=0;entryDy=0;" parent="1" source="48" target="47" edge="1"><mxGeometry relative="1" as="geometry"/></mxCell><mxCell id="51" style="edgeStyle=orthogonalEdgeStyle;orthogonalLoop=1;jettySize=auto;html=1;entryX=0.5;entryY=0;entryDx=0;entryDy=0;" parent="1" source="48" target="49" edge="1"><mxGeometry relative="1" as="geometry"/></mxCell><mxCell id="54" style="edgeStyle=orthogonalEdgeStyle;orthogonalLoop=1;jettySize=auto;html=1;entryX=0;entryY=0.5;entryDx=0;entryDy=0;" parent="1" source="48" target="52" edge="1"><mxGeometry relative="1" as="geometry"/></mxCell><mxCell id="48" value="&lt;p style=&quot;line-height: 140%&quot;&gt;&lt;/p&gt;&lt;h1&gt;&lt;span style=&quot;font-size: 24px&quot;&gt;&lt;b&gt;tgbotapi.core&lt;/b&gt;&lt;/span&gt;&lt;/h1&gt;&lt;p&gt;&lt;span style=&quot;font-size: 12px ; font-weight: normal&quot;&gt;Root project with API. It is not recommended to use its requests directly and better to use at least tgbotapi.extensions.api&lt;/span&gt;&lt;/p&gt;&lt;p&gt;&lt;/p&gt;" style="text;html=1;align=center;verticalAlign=middle;shadow=0;glass=0;spacing=5;whiteSpace=wrap;fillColor=#2a2a2a;fontColor=#E6E6E6;" parent="1" vertex="1"><mxGeometry x="240" y="40" width="200" height="120" as="geometry"/></mxCell><mxCell id="53" style="edgeStyle=orthogonalEdgeStyle;orthogonalLoop=1;jettySize=auto;html=1;entryX=0.25;entryY=0;entryDx=0;entryDy=0;" parent="1" source="49" target="52" edge="1"><mxGeometry relative="1" as="geometry"/></mxCell><mxCell id="0RoW5gwY-VOkkhbN-aKC-60" style="edgeStyle=orthogonalEdgeStyle;rounded=0;orthogonalLoop=1;jettySize=auto;html=1;exitX=0;exitY=0.5;exitDx=0;exitDy=0;entryX=0.5;entryY=0;entryDx=0;entryDy=0;" parent="1" source="49" target="55" edge="1"><mxGeometry relative="1" as="geometry"><Array as="points"><mxPoint x="330" y="260"/></Array></mxGeometry></mxCell><mxCell id="49" value="&lt;h1&gt;&lt;span style=&quot;text-align: left&quot;&gt;&lt;span style=&quot;line-height: 28.8px&quot;&gt;&lt;b style=&quot;font-size: 24px&quot;&gt;tgbotapi.utils&lt;/b&gt;&lt;/span&gt;&lt;/span&gt;&lt;/h1&gt;&lt;p&gt;Extensions project with utils things which will make easier different operations&lt;br&gt;&lt;/p&gt;" style="text;html=1;align=center;verticalAlign=middle;shadow=0;glass=0;spacing=5;whiteSpace=wrap;fillColor=#2a2a2a;fontColor=#E6E6E6;" parent="1" vertex="1"><mxGeometry x="360" y="200" width="320" height="120" as="geometry"/></mxCell><mxCell id="0RoW5gwY-VOkkhbN-aKC-59" style="edgeStyle=orthogonalEdgeStyle;rounded=0;orthogonalLoop=1;jettySize=auto;html=1;exitX=0.5;exitY=1;exitDx=0;exitDy=0;" parent="1" source="52" target="0RoW5gwY-VOkkhbN-aKC-58" edge="1"><mxGeometry relative="1" as="geometry"/></mxCell><mxCell id="0RoW5gwY-VOkkhbN-aKC-62" style="edgeStyle=orthogonalEdgeStyle;rounded=0;orthogonalLoop=1;jettySize=auto;html=1;exitX=0;exitY=0.75;exitDx=0;exitDy=0;entryX=0.25;entryY=0;entryDx=0;entryDy=0;" parent="1" source="52" target="55" edge="1"><mxGeometry relative="1" as="geometry"/></mxCell><mxCell id="52" value="&lt;h1 style=&quot;text-align: left&quot;&gt;&lt;span style=&quot;font-size: 24px&quot;&gt;&lt;b&gt;tgbotapi.behaviour_builder&lt;/b&gt;&lt;/span&gt;&lt;/h1&gt;&lt;p&gt;&lt;span style=&quot;font-size: 12px ; font-weight: 400&quot;&gt;Extension project for building bot behaviour via special DSL&lt;/span&gt;&lt;/p&gt;" style="text;html=1;align=center;verticalAlign=middle;shadow=0;glass=0;spacing=5;whiteSpace=wrap;fillColor=#2a2a2a;fontColor=#E6E6E6;" parent="1" vertex="1"><mxGeometry x="360" y="360" width="470" height="120" as="geometry"/></mxCell><mxCell id="55" value="&lt;p style=&quot;line-height: 140%&quot;&gt;&lt;/p&gt;&lt;h1&gt;&lt;span style=&quot;font-size: 24px&quot;&gt;&lt;b&gt;tgbotapi&lt;/b&gt;&lt;/span&gt;&lt;/h1&gt;&lt;p style=&quot;text-align: left&quot;&gt;Here included all available TelegramBotAPI libraries:&lt;/p&gt;&lt;p&gt;&lt;/p&gt;&lt;ul&gt;&lt;li style=&quot;text-align: left&quot;&gt;tgbotapi.core&lt;/li&gt;&lt;li style=&quot;text-align: left&quot;&gt;tgbotapi.api&lt;/li&gt;&lt;li style=&quot;text-align: left&quot;&gt;tgbotapi.utils&lt;/li&gt;&lt;li style=&quot;text-align: left&quot;&gt;tgbotapi.behaviour_builder&lt;/li&gt;&lt;li style=&quot;text-align: left&quot;&gt;tgbotapi.behaviour_builder.fsm&lt;/li&gt;&lt;/ul&gt;&lt;p&gt;&lt;/p&gt;&lt;p&gt;&lt;/p&gt;" style="text;html=1;align=center;verticalAlign=middle;shadow=0;glass=0;spacing=5;whiteSpace=wrap;fillColor=#2a2a2a;fontColor=#E6E6E6;" parent="1" vertex="1"><mxGeometry x="190" y="680" width="280" height="160" as="geometry"/></mxCell><mxCell id="0RoW5gwY-VOkkhbN-aKC-61" style="edgeStyle=orthogonalEdgeStyle;rounded=0;orthogonalLoop=1;jettySize=auto;html=1;exitX=0.5;exitY=1;exitDx=0;exitDy=0;entryX=1;entryY=0.5;entryDx=0;entryDy=0;" parent="1" source="0RoW5gwY-VOkkhbN-aKC-58" target="55" edge="1"><mxGeometry relative="1" as="geometry"/></mxCell><mxCell id="0RoW5gwY-VOkkhbN-aKC-58" value="&lt;h1 style=&quot;text-align: left&quot;&gt;&lt;span style=&quot;font-size: 24px&quot;&gt;&lt;b&gt;tgbotapi.behaviour_builder.fsm&lt;/b&gt;&lt;/span&gt;&lt;/h1&gt;&lt;p&gt;&lt;span style=&quot;font-size: 12px ; font-weight: 400&quot;&gt;Extension project for building bot behaviour via special DSL&lt;/span&gt;&lt;/p&gt;" style="text;html=1;align=center;verticalAlign=middle;shadow=0;glass=0;spacing=5;whiteSpace=wrap;fillColor=#2a2a2a;fontColor=#E6E6E6;" parent="1" vertex="1"><mxGeometry x="340" y="520" width="510" height="120" as="geometry"/></mxCell></root></mxGraphModel></diagram></mxfile>